<?xml version="1.0" encoding="utf-8"?>
<!DOCTYPE svg PUBLIC "-//W3C//DTD SVG 1.1//EN" "http://www.w3.org/Graphics/SVG/1.1/DTD/svg11.dtd">
<!-- exported from Silhouette Studio® Business Edition V4.3.370ssbe -->
<svg version="1.1" xmlns="http://www.w3.org/2000/svg" xmlns:xlink="http://www.w3.org/1999/xlink" width="76.20002mm" height="25mm" viewBox="0 0 76.20002 25">
<defs/>
<path d="M 22.20669 12.32947 C 22.04697 12.27361 21.85109 12.10753 21.60635 11.82047 C 21.01688 11.12907 21.01286 11.12009 21.05379 10.59019 C 21.07384 10.3306 21.12109 10.0748 21.15878 10.02175 C 21.19646 9.968694 21.31109 9.783718 21.41351 9.610689 C 21.51595 9.43766 21.63284 9.280516 21.67332 9.261481 C 21.7138 9.242446 21.79562 9.138179 21.85514 9.029776 C 21.91467 8.921373 22.07642 8.737452 22.21461 8.621061 C 22.3528 8.504671 22.54552 8.315269 22.6429 8.200167 C 22.74027 8.085065 23.01106 7.836387 23.24468 7.64755 C 23.4783 7.458714 23.73483 7.238966 23.8147 7.159225 C 23.8946 7.079484 24.16424 6.857791 24.4139 6.666574 C 24.66357 6.475356 24.86784 6.293646 24.86784 6.262776 C 24.86784 6.231905 24.9482 6.191306 25.04638 6.172554 C 25.14824 6.1531 25.32574 6.02594 25.45976 5.876404 C 25.58895 5.732272 25.72924 5.60403 25.77151 5.591421 C 25.81378 5.578812 26.07056 5.398497 26.34212 5.190723 C 26.61369 4.982949 26.86699 4.812953 26.90501 4.812953 C 26.94305 4.812953 26.97415 4.784903 26.97415 4.75062 C 26.97415 4.66911 26.44078 4.731619 26.22456 4.838468 C 26.13749 4.881496 25.82112 4.985191 25.52152 5.068902 C 25.22192 5.152612 24.81529 5.293095 24.61789 5.381085 C 24.42048 5.469076 23.93021 5.665665 23.52841 5.817949 C 22.12794 6.348737 16.87494 8.658738 15.65536 9.280114 C 15.51656 9.350837 15.23919 9.457825 15.03902 9.517864 C 14.83884 9.577905 14.58115 9.677911 14.46638 9.740097 C 14.22675 9.869939 11.86208 10.78428 11.10428 11.04012 C 10.12456 11.37087 8.403008 11.51396 7.781364 11.31632 C 7.55529 11.24444 7.291138 10.98036 7.291138 10.82621 C 7.291138 10.79911 7.208878 10.71432 7.108322 10.6378 C 7.007767 10.56128 6.827995 10.35172 6.708847 10.1721 C 6.44857 9.779767 6.427139 9.447615 6.639191 9.093405 C 6.720024 8.958381 6.817642 8.791868 6.856125 8.723375 C 6.894608 8.654882 7.18486 8.296411 7.501129 7.926771 C 8.12896 7.192994 8.234886 7.023692 8.066261 7.023692 C 7.97377 7.023692 6.162422 7.704104 5.307541 8.059976 C 5.143227 8.12837 4.904099 8.184331 4.776062 8.184331 C 4.648026 8.184331 4.532394 8.206265 4.519073 8.233077 C 4.505753 8.259888 4.352051 8.299881 4.177521 8.321952 C 3.926132 8.353738 3.866943 8.346477 3.892731 8.287022 C 3.910645 8.24574 3.99913 8.183704 4.089401 8.149163 C 4.202499 8.105881 4.22641 8.073615 4.166336 8.045361 C 4.118393 8.022812 4.054825 8.034309 4.025101 8.07091 C 3.986328 8.118676 3.911728 8.098423 3.760849 7.999139 C 3.576096 7.877566 3.566071 7.85627 3.677765 7.823222 C 3.749649 7.801961 3.804886 7.728158 3.804886 7.653366 C 3.804886 7.544206 3.841751 7.521109 4.015961 7.521109 C 4.182938 7.521109 4.219971 7.500458 4.193115 7.422315 C 4.148209 7.291666 4.430725 7.023692 4.613373 7.023692 C 4.697144 7.023692 4.737549 6.998948 4.709732 6.964704 C 4.68338 6.932261 4.728241 6.892502 4.809372 6.876354 C 4.890518 6.860206 4.974518 6.812138 4.996002 6.769537 C 5.017471 6.726936 5.0811 6.692081 5.137375 6.692081 C 5.193649 6.692081 5.284523 6.650977 5.33931 6.600737 C 5.394104 6.550498 5.763626 6.388576 6.160439 6.240909 C 6.557266 6.093243 6.942345 5.930814 7.016197 5.879956 C 7.090057 5.829098 7.386398 5.717534 7.674751 5.632034 C 8.147896 5.491744 8.286102 5.476561 9.091698 5.476377 C 9.896271 5.476194 10.00559 5.48811 10.19933 5.597105 C 10.31756 5.663617 10.41502 5.756882 10.4159 5.804362 C 10.41679 5.851841 10.48143 5.952865 10.55955 6.028859 C 10.63767 6.104853 10.70231 6.188887 10.70319 6.2156 C 10.70408 6.242314 10.8192 6.360521 10.95901 6.478285 C 11.09882 6.596047 11.21323 6.730243 11.21323 6.776497 C 11.21323 6.822752 11.08672 7.015429 10.93211 7.204669 C 10.7775 7.39391 10.63241 7.625099 10.6097 7.718424 C 10.58699 7.811749 10.46018 8.016085 10.32793 8.172502 C 10.19566 8.328919 9.973045 8.599838 9.833237 8.774546 C 9.69342 8.949252 9.503922 9.176805 9.412125 9.280217 C 9.32032 9.383629 9.226082 9.541039 9.202698 9.630014 C 9.160301 9.791307 9.164261 9.790199 10.5317 9.257905 C 11.28604 8.96427 11.93591 8.704236 11.97585 8.680056 C 12.0158 8.655875 12.34265 8.519439 12.70217 8.376863 C 13.70751 7.978174 13.7494 7.959986 13.79689 7.90152 C 13.82133 7.871415 14.05077 7.773792 14.30674 7.68458 C 14.56271 7.595368 14.77216 7.499916 14.77216 7.472465 C 14.77216 7.445014 14.84859 7.407955 14.94202 7.390112 C 15.03545 7.372268 16.06033 6.924634 17.2195 6.395371 C 18.37869 5.866109 19.48585 5.379646 19.67986 5.314343 C 19.87386 5.24904 20.08489 5.159586 20.14883 5.115557 C 20.28448 5.022146 21.8802 4.381436 22.97945 3.979025 C 23.3989 3.825474 23.90034 3.639405 24.09377 3.56554 C 24.28722 3.491676 24.53398 3.431241 24.64215 3.431241 C 24.75031 3.431241 24.86984 3.40963 24.90779 3.383217 C 25.01054 3.311707 25.88744 3.09963 26.08037 3.09963 C 26.17248 3.09963 26.24784 3.077868 26.24784 3.05127 C 26.24784 3.002403 26.39381 2.972383 27.11943 2.872017 C 27.62648 2.801881 28.94244 2.806694 29.0375 2.879032 C 29.0771 2.909168 29.1997 2.933824 29.30993 2.933824 C 29.53667 2.933824 29.89665 3.187764 29.85835 3.320704 C 29.83156 3.413703 30.18442 3.93224 30.43022 4.161064 C 30.57462 4.29548 30.58192 4.330297 30.50252 4.506064 C 30.45394 4.613588 30.34731 4.757713 30.26555 4.826343 C 30.1838 4.894972 30.00346 5.087914 29.86481 5.255101 C 29.72617 5.422288 29.42758 5.679136 29.20132 5.825876 C 28.97506 5.972615 28.78993 6.127543 28.78993 6.170159 C 28.78993 6.212776 28.53663 6.399492 28.22704 6.585085 C 27.91745 6.770678 27.6384 6.957215 27.6069 6.999614 C 27.57542 7.042012 27.36296 7.206837 27.1348 7.365891 C 26.16375 8.042804 23.85101 9.885377 23.85101 9.982111 C 23.85101 10.02211 23.72028 10.14 23.56049 10.24408 C 23.4007 10.34815 23.26997 10.46367 23.26997 10.50078 C 23.26997 10.53789 23.18926 10.64876 23.09064 10.74716 C 22.80822 11.02892 22.65668 11.34031 22.77433 11.39708 C 22.9202 11.46745 22.97647 11.45974 23.80224 11.25607 C 24.22393 11.15206 24.6303 11.07918 24.70531 11.09411 C 24.78032 11.10903 24.88425 11.08221 24.93629 11.0345 C 24.98832 10.98679 25.09227 10.94775 25.16728 10.94775 C 25.24229 10.94775 25.30365 10.92661 25.30365 10.90078 C 25.30365 10.87494 25.50791 10.79037 25.75758 10.71285 C 26.4185 10.50764 26.4744 10.49755 26.58009 10.56429 C 26.64767 10.60696 26.71472 10.60774 26.80692 10.56692 C 26.92991 10.51248 26.92903 10.50859 26.79256 10.50278 C 26.68153 10.49805 26.70161 10.47849 26.87781 10.41976 C 27.00459 10.37751 27.12907 10.31736 27.15446 10.2861 C 27.17985 10.25484 27.2625 10.22926 27.33817 10.22926 C 27.53381 10.22926 27.84573 10.11235 27.84573 10.03902 C 27.84573 9.980569 28.52175 9.794791 28.54803 9.846022 C 28.5548 9.85922 28.63652 9.816745 28.72961 9.751632 C 28.82272 9.686519 28.99693 9.617048 29.11678 9.597254 C 29.23661 9.577459 29.53008 9.462855 29.7689 9.342579 C 30.00773 9.222302 30.25952 9.123895 30.32848 9.123895 C 30.39743 9.123895 30.53522 9.061967 30.63468 8.986279 C 30.73415 8.910592 30.86226 8.862309 30.91936 8.878984 C 30.97702 8.895822 31.13223 8.83224 31.26839 8.735993 C 31.40325 8.640672 31.83875 8.439951 32.23615 8.289947 C 32.63356 8.139942 32.97675 7.996106 32.99879 7.970311 C 33.05257 7.90736 33.48157 7.742182 33.59128 7.742182 C 33.63942 7.742182 33.78593 7.680005 33.91686 7.604011 C 34.04779 7.528017 34.20337 7.46584 34.26256 7.46584 C 34.32175 7.46584 34.4465 7.417477 34.53978 7.358366 C 34.63304 7.299256 34.82376 7.178835 34.96357 7.090766 C 35.23795 6.91794 35.66441 6.784115 35.77502 6.836133 C 35.81266 6.853838 35.95726 6.779157 36.09635 6.670175 C 36.23544 6.561193 36.43786 6.458412 36.54614 6.441772 C 36.65443 6.425133 36.86389 6.362727 37.01162 6.303092 C 37.15935 6.243457 37.34329 6.194665 37.42037 6.194665 C 37.49744 6.194665 37.60047 6.158017 37.64932 6.113225 C 37.69818 6.068433 37.84712 6.016229 37.98031 5.997215 C 38.11351 5.978201 38.27672 5.917043 38.34299 5.861308 C 38.40929 5.805573 38.50422 5.771862 38.55398 5.786394 C 38.60375 5.800926 38.68639 5.774378 38.73763 5.727398 C 38.78886 5.680418 38.9085 5.64198 39.00347 5.64198 C 39.09846 5.64198 39.17618 5.614388 39.17618 5.580665 C 39.17618 5.543135 39.27478 5.52811 39.43038 5.541933 C 39.60568 5.557507 39.68458 5.542229 39.68458 5.492711 C 39.68458 5.453218 39.74802 5.420906 39.82555 5.420906 C 39.90309 5.420906 39.98674 5.396035 40.01143 5.365637 C 40.03613 5.33524 40.11159 5.309816 40.17914 5.30914 C 40.2467 5.308465 40.38367 5.259275 40.48353 5.199832 C 40.5834 5.140388 40.74683 5.091179 40.84669 5.090478 C 40.94655 5.089778 41.27339 5.049531 41.573 5.001042 C 42.29233 4.88462 43.0396 4.923755 43.51069 5.102522 C 43.72007 5.181975 43.86967 5.278258 43.88277 5.341974 C 43.90622 5.456067 43.98628 5.611648 44.1772 5.914163 C 44.31808 6.1374 44.33732 6.402645 44.21519 6.438303 C 44.16766 6.452182 44.10684 6.539546 44.08002 6.632444 C 44.05322 6.725343 44.00166 6.815275 43.96548 6.832295 C 43.86692 6.878643 43.27211 7.591948 43.03204 7.951686 C 42.91621 8.125237 42.72031 8.340281 42.59669 8.429562 C 42.47308 8.518843 42.37193 8.638755 42.37193 8.696033 C 42.37193 8.753313 42.32291 8.837485 42.26299 8.883081 C 42.20307 8.928678 42.15405 9.012712 42.15405 9.069826 C 42.15405 9.12694 42.11319 9.19356 42.06326 9.217869 C 41.79758 9.347202 41.62351 9.893844 41.86089 9.853355 C 41.91463 9.844191 42.12876 9.831451 42.33675 9.825047 C 42.54474 9.818641 42.76048 9.784614 42.81619 9.749432 C 42.8719 9.714251 43.01535 9.667601 43.13497 9.645767 C 43.25459 9.623934 43.38889 9.584366 43.43345 9.557841 C 43.47798 9.531316 43.67409 9.499235 43.86923 9.486549 C 44.34225 9.455798 44.47684 9.410238 44.55464 9.254528 C 44.59947 9.164804 44.67734 9.123895 44.80328 9.123895 C 44.90415 9.123895 45.05203 9.074153 45.13193 9.013357 C 45.21181 8.952561 45.33437 8.90252 45.40428 8.902154 C 45.47419 8.901788 45.67121 8.840658 45.8421 8.766311 C 46.01299 8.691963 46.19411 8.643194 46.24461 8.657936 C 46.29509 8.672678 46.57064 8.547986 46.85693 8.380842 C 47.14323 8.213699 47.39709 8.101108 47.42107 8.130638 C 47.49609 8.223009 47.6386 8.190022 47.85995 8.029048 C 48.14693 7.820349 48.63079 7.600994 48.75626 7.62271 C 48.81221 7.632394 48.92661 7.579748 49.01047 7.50572 C 49.09433 7.431691 49.23649 7.353453 49.32637 7.331855 C 49.42548 7.308036 49.48978 7.248275 49.48978 7.179967 C 49.48978 7.08049 49.52579 7.070201 49.79846 7.091779 C 50.02177 7.109452 50.20631 7.080489 50.46574 6.987046 C 50.66296 6.916008 50.85783 6.857887 50.89879 6.857887 C 50.93974 6.857887 51.04726 6.789491 51.13769 6.705898 C 51.25387 6.598511 51.31918 6.573328 51.36023 6.620079 C 51.42802 6.697275 51.52721 6.654174 51.63972 6.498642 C 51.68755 6.432501 51.81155 6.381149 51.94839 6.370786 C 52.0742 6.361261 52.17712 6.330172 52.17712 6.301701 C 52.17712 6.273229 52.24087 6.249934 52.31878 6.249934 C 52.39669 6.249934 52.48726 6.213455 52.52005 6.168872 C 52.55283 6.124289 52.69328 6.081225 52.83214 6.073174 C 52.98428 6.064353 53.14242 6.009094 53.23007 5.934136 C 53.31505 5.861467 53.48243 5.801543 53.6326 5.79003 C 53.77399 5.77919 53.9727 5.728921 54.07419 5.678322 C 54.17567 5.627723 54.27762 5.600721 54.30074 5.618318 C 54.32387 5.635914 54.3643 5.598752 54.39058 5.535737 C 54.41688 5.472671 54.52598 5.40549 54.63326 5.386301 C 54.74045 5.367126 54.93378 5.303143 55.06287 5.244116 C 55.19198 5.185089 55.33208 5.15301 55.37423 5.172828 C 55.41637 5.192647 55.58039 5.192209 55.73872 5.171855 C 55.95679 5.14382 56.02657 5.109228 56.02657 5.029169 C 56.02657 4.924157 56.16965 4.896041 56.58015 4.920401 C 56.66492 4.925431 56.75378 4.890877 56.77762 4.843615 C 56.80145 4.796353 56.90369 4.757684 57.00481 4.757684 C 57.10594 4.757684 57.18866 4.732814 57.18866 4.702416 C 57.18866 4.672019 57.30113 4.647147 57.43859 4.647147 C 57.57605 4.647147 57.71053 4.620043 57.73743 4.586915 C 57.76671 4.550861 57.88373 4.540584 58.02895 4.561315 C 58.16776 4.581131 58.3288 4.568734 58.4054 4.532333 C 58.4994 4.487662 58.67881 4.483207 59.0079 4.517371 C 59.39449 4.557503 59.47278 4.582896 59.45503 4.662409 C 59.43775 4.739834 59.47968 4.755969 59.66815 4.744423 C 59.87621 4.731679 59.90804 4.748866 59.94921 4.896122 C 59.97475 4.987461 60.08731 5.1676 60.19935 5.296431 C 60.36391 5.485655 60.38612 5.54621 60.31487 5.611538 C 60.26635 5.656015 60.24494 5.714916 60.26728 5.742426 C 60.28963 5.769936 60.09889 5.975802 59.84342 6.199907 C 59.58794 6.424011 59.38023 6.620212 59.38185 6.635909 C 59.39177 6.732067 59.33781 6.799829 59.08115 7.013482 C 58.92362 7.144629 58.80831 7.281408 58.82493 7.317434 C 58.85893 7.391137 58.54272 7.686914 58.42995 7.686914 C 58.38976 7.686914 58.27069 7.798831 58.16534 7.935621 C 58.02254 8.121041 57.92934 8.184331 57.79913 8.184331 C 57.64825 8.184331 57.62445 8.210428 57.62445 8.375826 C 57.62445 8.510756 57.58154 8.584795 57.47919 8.626478 C 57.39929 8.659015 57.33392 8.738146 57.33392 8.802323 C 57.33392 8.866503 57.2186 9.051224 57.07764 9.212814 C 56.78406 9.549383 56.78809 9.763992 57.08907 9.821474 C 57.28925 9.859705 58.06037 9.797468 58.16918 9.734299 C 58.29961 9.658574 58.69095 9.625944 58.76775 9.684389 C 58.81937 9.723663 58.85801 9.72273 58.89159 9.681395 C 58.91843 9.648349 59.03651 9.621309 59.15399 9.621309 C 59.27203 9.621309 59.43378 9.570955 59.5155 9.508759 C 59.59686 9.446855 59.69633 9.411689 59.73658 9.430614 C 59.77682 9.449538 59.84997 9.439618 59.89912 9.408569 C 60.05952 9.307278 60.67765 9.172365 60.82182 9.207184 C 60.89922 9.225878 61.0204 9.21554 61.09111 9.184213 C 61.16183 9.152886 61.17883 9.126499 61.12889 9.125575 C 61.07896 9.124651 61.03812 9.098083 61.03812 9.066534 C 61.03812 9.034985 61.11166 9.015302 61.20153 9.022792 C 61.51173 9.048642 62.19009 8.947329 62.22945 8.869272 C 62.27599 8.777 62.46746 8.766794 62.50589 8.854536 C 62.53854 8.929077 63.14914 8.708584 63.24059 8.589231 C 63.27427 8.545266 63.35714 8.524786 63.43008 8.5424 C 63.50167 8.559692 63.6002 8.536557 63.65019 8.490716 C 63.7205 8.426261 63.77383 8.421213 63.889 8.468116 C 64.00556 8.515589 64.05064 8.510357 64.09968 8.443656 C 64.16784 8.35098 64.67624 8.212481 65.15423 8.156374 C 65.32088 8.136813 65.4751 8.08536 65.49694 8.042032 C 65.55277 7.931332 65.68597 7.943769 65.6891 8.059976 C 65.69117 8.136455 65.72595 8.124888 65.85526 8.004708 C 65.96056 7.906845 66.08896 7.852719 66.21581 7.852719 C 66.32417 7.852719 66.4128 7.82638 66.4128 7.794189 C 66.4128 7.761995 66.45294 7.754534 66.50201 7.777608 C 66.6692 7.856235 66.95904 7.823956 66.93758 7.7291 C 66.92186 7.659561 66.96518 7.646559 67.14191 7.667755 C 67.26527 7.682548 67.41002 7.666969 67.46359 7.633135 C 67.51717 7.5993 67.64199 7.587083 67.74097 7.605986 C 67.85359 7.627495 68.04631 7.596881 68.2561 7.524162 C 68.90011 7.300913 68.96188 7.290809 69.13999 7.379614 C 69.31039 7.464571 69.4278 7.443203 69.92606 7.236556 C 70.10714 7.161455 71.39941 7.234545 71.65678 7.334444 C 71.76466 7.376314 71.95389 7.410571 72.07731 7.410571 C 72.33717 7.410571 72.7566 7.561711 73.09109 7.775887 C 73.28817 7.902078 73.31811 7.952086 73.28292 8.096323 C 73.25386 8.215463 73.28491 8.317457 73.38545 8.433039 C 73.46478 8.524231 73.5299 8.627314 73.53016 8.662109 C 73.53104 8.777544 73.01653 8.643963 72.77547 8.466167 C 72.44424 8.221878 71.73163 8.143417 70.696 8.237213 C 70.27767 8.275101 69.80467 8.317419 69.64488 8.331254 C 69.48509 8.34509 69.28899 8.378136 69.20911 8.404691 C 68.92821 8.498051 68.49345 8.585645 68.0907 8.630022 C 67.62955 8.680835 66.52364 8.910593 66.44231 8.972484 C 66.41276 8.994964 66.29791 9.013357 66.18709 9.013357 C 66.07627 9.013357 65.96539 9.038229 65.94071 9.068626 C 65.91602 9.099024 65.82258 9.123895 65.73305 9.123895 C 65.64354 9.123895 65.53923 9.145384 65.50129 9.171648 C 65.46334 9.197912 65.26887 9.249276 65.06913 9.285788 C 64.86939 9.322299 64.6406 9.383953 64.56071 9.422797 C 64.48082 9.461641 64.17033 9.536659 63.87073 9.589504 C 63.57112 9.642348 63.16257 9.730893 62.96284 9.78627 C 62.7631 9.841646 62.43626 9.918184 62.23652 9.956354 C 62.03678 9.994523 61.73689 10.07341 61.57009 10.13166 C 61.34429 10.21051 61.23153 10.22318 61.12862 10.18127 C 61.02415 10.13873 60.9337 10.15121 60.75828 10.23239 C 60.63062 10.29147 60.46354 10.3398 60.38697 10.3398 C 60.31039 10.3398 60.22987 10.3618 60.20804 10.38868 C 60.13062 10.48401 59.17298 10.57901 58.24181 10.58372 C 57.2697 10.58865 57.30187 10.59383 56.62577 10.32363 C 56.5359 10.28771 56.46236 10.23065 56.46236 10.19684 C 56.46236 10.16303 56.36489 10.02592 56.24578 9.892153 C 56.07462 9.699939 56.03 9.591003 56.03299 9.372602 C 56.03507 9.220614 56.06313 9.046518 56.09533 8.985723 C 56.12753 8.924927 56.12476 8.847327 56.08916 8.813278 C 56.04668 8.772652 56.1122 8.70044 56.27972 8.603209 C 56.48058 8.48662 56.53498 8.41625 56.53498 8.272985 C 56.53498 8.085437 56.75602 7.868787 56.88533 7.929599 C 56.98415 7.976077 57.12632 7.826893 57.07679 7.72868 C 57.05383 7.68315 57.08595 7.607161 57.14817 7.559816 C 57.21039 7.512472 57.26129 7.4562 57.26129 7.434766 C 57.26129 7.413334 57.35117 7.336476 57.46103 7.263972 C 57.60866 7.166541 57.6367 7.120574 57.56852 7.087788 C 57.5014 7.055516 57.57408 6.958366 57.8353 6.731216 C 58.03278 6.559499 58.21487 6.369799 58.23995 6.309661 C 58.26504 6.249523 58.34927 6.184936 58.42712 6.166133 C 58.50497 6.147331 58.56865 6.108136 58.56865 6.079035 C 58.56865 6.049933 58.64973 6.002665 58.74884 5.973993 C 58.87215 5.938318 58.91503 5.894091 58.88467 5.833891 C 58.85461 5.774262 58.89015 5.736006 58.995 5.71514 C 59.17497 5.679328 59.18169 5.651105 59.04327 5.512091 C 58.98409 5.452642 58.9046 5.427175 58.85341 5.451253 C 58.80497 5.474032 58.56585 5.523517 58.32201 5.561221 C 57.8455 5.6349 57.60071 5.695669 56.96169 5.898916 C 56.73698 5.970385 56.48767 6.028859 56.40766 6.028859 C 56.21992 6.028859 55.82243 6.156079 55.38951 6.354722 C 55.20061 6.4414 54.95616 6.528368 54.84631 6.547984 C 54.73646 6.5676 54.64658 6.608048 54.64658 6.637866 C 54.64658 6.667685 54.59975 6.692081 54.54249 6.692081 C 54.48524 6.692081 54.12512 6.814559 53.74223 6.964253 C 53.35933 7.113947 52.94096 7.253991 52.81249 7.275462 C 52.68403 7.296932 52.1376 7.497776 51.59824 7.721781 C 51.05887 7.945786 50.58132 8.129062 50.53703 8.129062 C 50.49274 8.129062 50.4004 8.176237 50.33182 8.233894 C 50.26324 8.291553 50.0686 8.365274 49.89927 8.397719 C 49.72993 8.430164 49.45016 8.534564 49.27753 8.629717 C 49.10491 8.724871 48.86143 8.828929 48.73647 8.860956 C 48.6115 8.892982 48.38026 8.990117 48.22259 9.076809 C 48.06492 9.163502 47.87891 9.234432 47.80924 9.234432 C 47.73958 9.234432 47.66354 9.25788 47.64025 9.286541 C 47.59372 9.343832 45.97337 9.952533 45.5677 10.06511 C 45.42789 10.10391 45.13374 10.20562 44.91402 10.29114 C 43.86321 10.70012 42.3639 10.92009 41.75381 10.75478 C 41.59444 10.7116 41.41238 10.67517 41.34922 10.67384 C 41.28606 10.6725 41.18942 10.60302 41.13446 10.51942 C 41.0795 10.43583 40.987 10.32374 40.9289 10.27034 C 40.65588 10.01936 40.33827 9.490574 40.33827 9.286993 C 40.33827 9.148927 40.43198 8.933894 40.62614 8.626478 C 40.65494 8.580882 40.76537 8.51113 40.87154 8.471475 C 41.00304 8.422359 41.06458 8.355734 41.06458 8.262483 C 41.06458 8.187194 41.11342 8.111332 41.17311 8.093902 C 41.2328 8.076471 41.26495 8.041664 41.24455 8.016552 C 41.22416 7.99144 41.2388 7.95616 41.27709 7.938152 C 41.31538 7.920145 41.36826 7.79603 41.39461 7.662343 C 41.42426 7.511872 41.50887 7.371837 41.6167 7.294751 C 41.7125 7.226264 41.79089 7.137259 41.79089 7.096961 C 41.79089 7.056664 41.84095 7.023692 41.90212 7.023692 C 41.9633 7.023692 42.03152 6.980167 42.05374 6.926972 C 42.17914 6.626739 42.42194 6.309249 42.52759 6.307348 C 42.62677 6.305564 42.73508 6.201107 42.73508 6.107243 C 42.73508 6.025631 42.14262 6.117146 41.42773 6.309183 C 40.96835 6.432587 40.35629 6.591991 40.06758 6.663414 C 39.77888 6.734836 39.44602 6.84564 39.3279 6.909645 C 39.20978 6.97365 38.97261 7.063749 38.80085 7.109862 C 38.62907 7.155976 38.42218 7.226803 38.34104 7.267255 C 38.25991 7.307708 38.08778 7.358479 37.95853 7.38008 C 37.82928 7.40168 37.72356 7.438918 37.72356 7.462829 C 37.72356 7.486739 37.47025 7.5762 37.16066 7.661629 C 36.85107 7.747058 36.4462 7.893395 36.26095 7.986825 C 35.83273 8.202786 34.81061 8.639034 33.69253 9.083048 C 33.45284 9.178231 33.23883 9.275663 33.21693 9.299565 C 33.19504 9.323467 32.90088 9.452201 32.56325 9.58564 C 31.36811 10.05799 31.07691 10.18362 30.99717 10.26127 C 30.95282 10.30446 30.86636 10.3398 30.80503 10.3398 C 30.7437 10.3398 30.17537 10.53473 29.54202 10.77297 C 28.90867 11.01122 28.22704 11.25194 28.02731 11.30791 C 27.82758 11.36388 27.57741 11.45497 27.47137 11.51033 C 27.36533 11.56568 27.22707 11.61098 27.16415 11.61098 C 27.04488 11.61098 26.89496 11.65167 25.71784 12.0036 C 24.54961 12.35287 22.75097 12.5198 22.20669 12.32947 Z" fill="#034564" fill-opacity="1" stroke="#034564" stroke-opacity="1" stroke-width="0.1" stroke-linecap="round" stroke-linejoin="round"/>
</svg>