<?xml version="1.0" encoding="utf-8"?>
<!DOCTYPE svg PUBLIC "-//W3C//DTD SVG 1.1//EN" "http://www.w3.org/Graphics/SVG/1.1/DTD/svg11.dtd">
<!-- exported from Silhouette Studio® Business Edition V4.3.370ssbe -->
<svg version="1.1" xmlns="http://www.w3.org/2000/svg" xmlns:xlink="http://www.w3.org/1999/xlink" width="76.20002mm" height="25mm" viewBox="0 0 76.20002 25">
<defs/>
<path d="M 17.42717 14.09043 C 17.40231 14.06549 17.30611 14.04039 17.21338 14.03467 C 15.31526 13.91755 14.75392 13.82261 14.45273 13.56771 C 14.38318 13.50886 14.23428 13.40789 14.12184 13.34333 C 14.0094 13.27877 13.87051 13.12478 13.81322 13.00112 C 13.75592 12.87748 13.65948 12.67134 13.59891 12.54307 C 13.5226 12.38149 13.50899 12.28956 13.55458 12.24381 C 13.60017 12.19807 13.58801 12.16532 13.51498 12.13719 C 13.457 12.11486 13.40958 12.05915 13.40958 12.01337 C 13.40958 11.96759 13.36809 11.84932 13.3174 11.75055 C 13.26669 11.65177 13.07814 11.24404 12.89841 10.84448 C 12.60106 10.18348 12.57118 10.07486 12.56693 9.639133 C 12.56229 9.16592 12.67029 8.68446 12.78107 8.68446 C 12.81248 8.68446 12.85703 8.605953 12.88007 8.510006 C 12.90312 8.414051 13.06013 8.122761 13.229 7.86269 C 13.56146 7.350643 13.59911 7.225353 13.42041 7.225353 C 13.26913 7.225353 12.01691 7.62888 11.78659 7.75185 C 11.68825 7.804356 11.37291 7.936398 11.08585 8.045261 C 10.5033 8.266193 9.479431 8.704044 9.236984 8.835896 C 9.150055 8.883183 8.965134 8.957882 8.82605 9.001911 C 8.686951 9.045948 8.312531 9.206638 7.993973 9.359013 C 7.6754 9.511387 7.38887 9.636051 7.357224 9.636051 C 7.325577 9.636051 7.102585 9.794071 6.861664 9.987202 C 6.221283 10.50057 5.878906 10.64734 5.377228 10.62359 C 4.782822 10.59544 4.7939 10.59826 4.836884 10.48588 C 4.863693 10.41578 4.767471 10.28457 4.527542 10.06405 C 4.303604 9.858242 4.179276 9.693165 4.179276 9.60165 C 4.179276 9.523357 4.136612 9.442875 4.084457 9.422794 C 4.032288 9.402706 3.989624 9.32729 3.989624 9.255184 C 3.989624 9.183071 3.945358 9.056286 3.891266 8.973446 C 3.729294 8.725391 3.901367 7.995655 4.15834 7.84074 C 4.204636 7.81284 4.242508 7.749607 4.242508 7.70023 C 4.242508 7.650852 4.306519 7.577312 4.38475 7.536793 C 4.462982 7.496281 4.688339 7.323978 4.885529 7.153919 C 5.082718 6.983868 5.270874 6.844723 5.30365 6.844723 C 5.336426 6.844723 5.57338 6.702663 5.830215 6.529018 C 6.087051 6.355381 6.345306 6.212643 6.404099 6.211826 C 6.462906 6.211002 6.528595 6.181782 6.550079 6.146893 C 6.571564 6.112003 6.644379 6.083454 6.711868 6.083454 C 6.779358 6.083454 6.834579 6.061878 6.834579 6.035503 C 6.834579 5.972004 7.402557 5.712551 7.650436 5.662792 C 7.758057 5.641186 7.846115 5.598537 7.846115 5.568005 C 7.846115 5.537472 7.883255 5.512501 7.928665 5.512501 C 7.97406 5.512501 8.10762 5.441135 8.225433 5.353901 C 8.343262 5.266674 8.504395 5.195301 8.583496 5.195301 C 8.662582 5.195301 8.8349 5.140766 8.966339 5.074108 C 9.566284 4.769924 9.925766 4.624348 10.07703 4.624348 C 10.16724 4.624348 10.25864 4.595806 10.28014 4.560917 C 10.30162 4.52602 10.40263 4.497471 10.50458 4.497471 C 10.60652 4.497471 10.89645 4.428661 11.14886 4.344563 C 11.76015 4.140888 12.9687 4.020779 13.80518 4.08057 C 14.16133 4.10603 14.69455 4.123775 14.99011 4.119999 C 15.43227 4.114353 15.5611 4.135868 15.71715 4.241444 C 15.82147 4.312016 15.95442 4.369946 16.0126 4.370174 C 16.14333 4.370686 16.50742 4.670437 16.50742 4.777531 C 16.50742 4.820683 16.57855 4.923031 16.66547 5.004986 C 16.7524 5.086933 16.82353 5.200642 16.82353 5.257671 C 16.82353 5.314701 16.8653 5.416782 16.91635 5.484516 C 16.96739 5.55225 17.00992 5.664753 17.01086 5.734539 C 17.01431 5.992321 17.24086 6.494122 17.45291 6.713696 C 17.7296 7.000202 17.8114 7.150806 17.8658 7.473927 C 17.89461 7.645023 17.88605 7.732876 17.84062 7.732876 C 17.8028 7.732876 17.77184 7.817165 17.77184 7.920208 C 17.77184 8.145473 17.6819 8.357777 17.40833 8.778172 C 17.2953 8.951839 17.20285 9.129269 17.20285 9.172459 C 17.20285 9.215664 17.1216 9.344776 17.02229 9.459385 C 16.81143 9.702747 16.19131 10.69485 16.19131 10.78885 C 16.19131 10.92161 17.76491 10.67157 18.22266 10.46607 C 18.38367 10.39379 18.73019 10.29341 18.99274 10.243 C 19.25528 10.1926 19.556 10.10678 19.66098 10.0523 C 19.76596 9.997822 19.92644 9.953251 20.01761 9.953251 C 20.18076 9.953251 21.27216 9.62495 21.54869 9.492687 C 21.65999 9.439472 21.71524 9.447575 21.80656 9.530499 C 21.95659 9.666744 21.99683 9.66354 22.12462 9.505169 C 22.22713 9.378147 22.68625 9.221004 23.49336 9.036686 C 23.702 8.98904 24.0007 8.902721 24.15718 8.84486 C 24.31366 8.787006 24.57841 8.700855 24.74554 8.653423 C 24.91267 8.605984 25.09012 8.533283 25.13988 8.491848 C 25.18964 8.45042 25.27698 8.434467 25.33398 8.456425 C 25.39099 8.478374 25.46959 8.470455 25.50865 8.438824 C 25.5477 8.4072 25.78674 8.331272 26.03984 8.270107 C 26.29294 8.208942 26.51511 8.134418 26.53352 8.104481 C 26.55196 8.074551 26.62341 8.050068 26.69228 8.050068 C 26.76117 8.050068 26.92305 7.996937 27.05206 7.931995 C 27.18108 7.867062 27.32013 7.825916 27.36107 7.84058 C 27.40201 7.855251 27.57269 7.811031 27.74039 7.742336 C 27.9081 7.673634 28.30092 7.559017 28.61334 7.487637 C 28.92577 7.416256 29.19131 7.328037 29.20341 7.291599 C 29.21552 7.255169 29.3074 7.225353 29.40761 7.225353 C 29.5078 7.225353 29.71168 7.185673 29.86069 7.137157 C 30.34006 6.981083 30.50679 6.947193 30.7122 6.964054 C 30.82289 6.973133 30.97938 6.944088 31.05991 6.899502 C 31.38078 6.721889 33.55012 6.586948 34.10914 6.709835 C 34.28595 6.748707 34.62318 6.791889 34.85854 6.80582 C 35.09389 6.819744 35.32148 6.859646 35.3643 6.894505 C 35.40714 6.929356 35.5611 6.971264 35.70645 6.987629 C 36.16863 7.039654 36.71313 7.574001 36.983 8.240383 C 37.20938 8.799358 37.26235 8.894596 37.47048 9.116848 C 37.65054 9.309124 37.70768 9.330143 38.13535 9.361477 C 38.39268 9.380337 38.81659 9.360607 39.07738 9.317638 C 39.33817 9.274662 39.69663 9.232441 39.87395 9.223812 C 40.16923 9.209431 40.59727 9.105099 40.75275 9.009609 C 40.78754 8.988255 40.87288 8.965504 40.94242 8.959042 C 41.37367 8.918995 41.92624 8.811337 42.14362 8.72501 C 42.43435 8.609554 42.87983 8.495022 43.15515 8.464954 C 43.48761 8.428654 44.07124 8.311695 44.14346 8.266911 C 44.27126 8.187656 44.64085 8.125767 44.64085 8.183628 C 44.64085 8.266644 44.81578 8.253063 44.84408 8.16785 C 44.86212 8.113529 44.90238 8.113689 45.00437 8.168453 C 45.11702 8.228947 45.16023 8.22047 45.25423 8.119411 C 45.32984 8.038128 45.4949 7.983143 45.74723 7.955166 C 46.3493 7.888409 46.54232 7.863255 46.98004 7.794529 C 47.74216 7.674877 48.24741 7.624165 48.39504 7.65247 C 48.47577 7.667965 48.78077 7.63657 49.07278 7.582706 C 49.67636 7.471386 50.35757 7.405437 51.18424 7.3783 C 51.49718 7.368023 51.81014 7.355442 51.87968 7.350353 C 51.94922 7.345257 52.16612 7.35799 52.36169 7.378643 C 52.63335 7.407337 52.73562 7.393993 52.79507 7.322109 C 52.84646 7.259975 52.90821 7.246243 52.97689 7.281666 C 53.07108 7.330242 55.05608 7.326542 55.10429 7.277699 C 55.11549 7.266354 55.39983 7.271351 55.73618 7.288799 C 56.07251 7.30624 56.35963 7.308468 56.3742 7.293728 C 56.4261 7.241276 57.05775 7.234592 57.15475 7.285473 C 57.20905 7.313953 57.42418 7.310879 57.63281 7.278645 C 57.84145 7.246403 58.80872 7.2076 59.78233 7.19241 C 61.96376 7.158367 63.01617 7.119656 63.09541 7.070515 C 63.1287 7.04987 63.17451 7.063145 63.19723 7.100025 C 63.21995 7.136906 63.28911 7.150974 63.35091 7.13129 C 63.46104 7.096218 64.53316 7.073765 65.6619 7.082874 C 65.97485 7.0854 66.33047 7.086567 66.45217 7.085468 C 67.01643 7.080379 68.01825 7.157696 68.17519 7.218449 C 68.30083 7.267078 68.39371 7.265545 68.50879 7.212933 C 68.63756 7.154057 68.71242 7.161152 68.89767 7.249798 C 69.04197 7.318844 69.14162 7.335979 69.16627 7.295971 C 69.22152 7.206264 70.89598 7.312244 70.9276 7.407459 C 70.95701 7.495937 71.19376 7.503262 71.19376 7.415676 C 71.19376 7.380787 71.25371 7.352245 71.32697 7.352245 C 71.41811 7.352245 71.44892 7.381641 71.42455 7.445362 C 71.40497 7.496578 71.41615 7.555363 71.4494 7.575985 C 71.48266 7.596607 71.50986 7.585171 71.50986 7.550571 C 71.50986 7.515972 71.5693 7.468746 71.64193 7.445606 C 71.73698 7.415333 71.80123 7.442585 71.8712 7.542812 C 71.94646 7.650639 72.00944 7.673847 72.15009 7.645626 C 72.25 7.625568 72.41235 7.62534 72.51087 7.645115 C 72.66017 7.675083 72.68999 7.712994 72.68999 7.872982 C 72.68999 7.986149 72.73323 8.089191 72.79536 8.124081 C 72.90199 8.183964 72.9433 8.36726 72.85015 8.36726 C 72.82234 8.36726 72.76543 8.333004 72.7237 8.291134 C 72.6647 8.23193 72.64784 8.24638 72.64784 8.356167 C 72.64784 8.4604 72.69469 8.506718 72.82696 8.53326 C 72.95219 8.558399 73.03546 8.634251 73.10375 8.785435 L 73.20143 9.001659 L 73.02474 9.001659 C 72.92757 9.001659 72.83686 8.967976 72.82318 8.926807 C 72.79839 8.852154 72.74875 8.866253 72.47318 9.026264 C 72.37047 9.085896 72.23873 9.09483 72.00613 9.057934 C 71.82792 9.029667 71.63625 9.030392 71.58019 9.059536 C 71.52412 9.08868 69.94199 9.097172 68.06432 9.078403 C 64.01693 9.037952 64.6599 9.036716 61.90025 9.090282 C 60.66585 9.114246 58.36143 9.146282 56.77932 9.16148 C 53.99176 9.188251 52.95278 9.21629 52.22739 9.284328 C 52.03615 9.302265 51.66631 9.330723 51.40553 9.347576 C 50.4706 9.407986 48.76918 9.573925 48.08641 9.671291 C 47.70392 9.725834 47.19183 9.795216 46.94843 9.825474 C 46.22051 9.915958 43.99761 10.35643 43.70446 10.46827 C 43.53436 10.53317 42.32652 10.88118 41.51141 11.10015 C 41.268 11.16555 41.00496 11.21972 40.92686 11.22055 C 40.84876 11.22136 40.61875 11.27973 40.41573 11.35022 C 40.15176 11.44188 39.86797 11.48068 39.41973 11.48638 C 38.6061 11.49673 37.86026 11.44221 37.70975 11.36139 C 37.64409 11.32611 37.51486 11.31173 37.42262 11.32943 C 37.29002 11.35487 37.19598 11.30712 36.97367 11.1015 C 36.819 10.95845 36.66288 10.8414 36.62674 10.8414 C 36.56538 10.8414 36.39372 10.6055 36.16754 10.21035 C 36.02125 9.954746 35.787 9.7328 35.49409 9.572254 C 35.2459 9.43623 35.20591 9.432186 34.83372 9.505657 C 34.61584 9.548679 34.30797 9.595264 34.1496 9.609196 C 33.51064 9.665379 33.22486 9.720234 33.01114 9.827732 C 32.88779 9.889767 32.58773 9.976986 32.34433 10.02155 C 32.10091 10.0661 31.87333 10.12285 31.83856 10.14767 C 31.73857 10.21903 30.8106 10.46076 30.63665 10.46076 C 30.54975 10.46076 30.4793 10.49765 30.4793 10.54317 C 30.4793 10.63574 30.29615 10.70769 29.5626 10.90328 C 29.28442 10.97744 28.99993 11.06296 28.93038 11.0933 C 28.6445 11.21807 28.16949 11.34891 28.00241 11.34891 C 27.88597 11.34891 27.82402 11.38196 27.82402 11.44407 C 27.82402 11.50193 27.76518 11.53923 27.6739 11.53923 C 27.59135 11.53923 27.40285 11.58205 27.25502 11.63438 C 27.10719 11.68672 26.87933 11.72954 26.74867 11.72954 C 26.57066 11.72954 26.50345 11.75898 26.48051 11.84697 C 26.45172 11.95746 26.36024 11.9877 25.76932 12.08201 C 25.517 12.1223 24.81833 12.31166 24.71123 12.36881 C 24.65085 12.40102 24.52203 12.42738 24.42499 12.42738 C 24.32794 12.42738 24.18904 12.4692 24.11633 12.5203 C 24.04362 12.57141 23.97328 12.6027 23.96002 12.58985 C 23.94675 12.57699 23.69409 12.62209 23.39853 12.69004 C 23.10297 12.75799 22.81796 12.82083 22.7652 12.82967 C 22.71243 12.8385 22.64131 12.8614 22.60715 12.88054 C 22.573 12.89968 22.40279 12.95271 22.22894 12.99839 C 22.05508 13.04409 21.88297 13.10432 21.84648 13.13227 C 21.81 13.16022 21.65349 13.20114 21.49875 13.2232 C 21.13597 13.27494 20.63271 13.42391 20.41057 13.54535 C 20.31453 13.59784 20.18333 13.62403 20.11903 13.60356 C 20.05472 13.58308 19.83459 13.61282 19.62984 13.66965 C 19.08345 13.8213 18.69579 13.89491 18.00266 13.9786 C 17.83405 13.99896 17.64577 14.04264 17.58424 14.0757 C 17.52271 14.10874 17.45203 14.11537 17.42717 14.09043 Z" fill="#034564" fill-opacity="1" stroke="#034564" stroke-opacity="1" stroke-width="0.1" stroke-linecap="round" stroke-linejoin="round"/>
</svg>